<svg version="1" xmlns="http://www.w3.org/2000/svg" width="933.333" height="933.333" viewBox="0 0 700.000000 700.000000"><path d="M461.9 205.4c-.2.2-6.7.6-14.4 1s-15.6.9-17.5 1.1c-8.7 1.1-12.7 1.6-16 2.1-4.2.7-24.3 5-28.5 6.2l-3 .8-.3 138.7L382 494l2.2.1c1.3 0 13.6.1 27.3.1l25 .1.3-39.6.2-39.6 4.8 1.9c4.8 1.9 7.9 3 9.7 3.6 7.2 2.5 19.7 4.4 28.5 4.5 21.3.2 37.9-5.9 52.3-19.2 10.7-9.7 17.8-21.3 23.5-38.4 2.8-8.5 3.3-10.5 4.8-18.8.3-1.7.7-4.3 1-5.7 1.8-10.5 2.3-32.8 1-45.4-2-20.1-8.3-38.7-17.9-53.1-5.7-8.5-18-20.3-26.4-25.2-7.2-4.2-21.1-9.7-27.4-10.7-1.9-.3-5.5-.9-8-1.4-2.5-.5-7.9-1-11.9-1.1-4.1-.1-7.7-.4-8.1-.6-.3-.3-.8-.3-1-.1zm18.3 50.9c17.2 8.4 26.9 29.7 27.1 59.6.3 32.2-7.4 51.6-23.3 59-9.8 4.5-28.9 3.4-41.7-2.4l-5.3-2.4V254.3l5.7-.2c3.1-.1 5.9-.4 6.2-.6.2-.3 6.1-.4 13-.2 11.4.2 13.1.5 18.3 3zM137 211.3c0 3 25.7 82.1 31 95.2.4 1.1 1.4 3.8 2.3 6 13.3 35.1 28.5 70.8 41.3 97l5.3 11h22.6c13.1 0 22.9-.5 23.4-1 2.9-2.9 33.1-67.9 44.8-96.5 1.9-4.7 4.1-9.8 4.9-11.4.8-1.6 1.4-3.2 1.4-3.6 0-.4.8-2.5 1.7-4.6 7-16.4 31.3-87.9 31.3-92.3 0-.5-11.8-.9-28.1-.9-15.4 0-27.9.2-27.6.4.9.9-11.6 41-19.8 63.4-1.3 3.6-5.4 14.8-9.1 25-3.6 10.2-8.6 23.4-10.9 29.5-2.4 6-5.7 14.7-7.5 19.3-1.8 4.6-3.3 8.2-3.5 8-.9-1.1-13.1-35.3-20.1-56.3-12-36-20.7-65.4-23.5-78.5-.5-2.5-1.4-5.9-2-7.7l-1-3.1h-28.4c-20.3 0-28.5.3-28.5 1.1z"/></svg>